<svg width="480" height="151" viewBox="0 0 480 151" fill="none" xmlns="http://www.w3.org/2000/svg">
<path d="M131.374 0.0756207C112.359 0.0756207 93.1738 16.1256 93.1738 35.8196L93.156 113.712V113.729C91.0838 123.813 77.24 123.795 75.4358 113.551V36.5967C75.0964 26.1289 70.9343 16.7419 63.2353 9.73955C39.8525 -11.5532 2.05425 4.39848 0 35.4267V147.33C0 147.991 0.535892 148.527 1.19683 148.527H27.5091C28.1701 148.527 28.706 147.991 28.706 147.33C28.6881 136.71 28.5809 58.4075 28.8757 37.606C28.8757 32.5239 32.5376 29.4068 38.0752 29.4068C42.0765 29.4068 46.578 32.899 46.578 37.606L46.6048 115.498C46.6048 136.005 64.584 150.081 84.3227 150.081C104.061 150.081 121.853 134.022 121.853 115.507V37.3827C121.853 26.3076 139.779 26.4773 139.779 37.3827V147.321C139.779 147.982 140.306 148.518 140.967 148.518H167.44C168.101 148.518 168.636 147.982 168.636 147.321V34.8372C168.619 14.0445 151.943 0.0756207 131.374 0.0756207Z" fill="#070F06"/>
<path d="M223.95 1.46021H197.691C197.03 1.46021 196.494 1.99604 196.494 2.65703V147.321C196.494 147.982 197.03 148.518 197.691 148.518H223.95C224.611 148.518 225.147 147.982 225.147 147.321V2.65703C225.147 1.99604 224.611 1.46021 223.95 1.46021Z" fill="#070F06"/>
<path d="M373.606 1.4604H347.348C346.687 1.4604 346.151 1.99629 346.151 2.65722L346.133 112.569C344.981 123.965 329.565 124.341 328.065 112.712L328.011 36.7132C328.011 31.0595 326.787 25.4594 324.269 20.4042C322.339 16.5368 319.767 13.0089 316.632 10.0883C292.821 -12.1513 253.531 4.85438 252.763 36.9811V147.321C252.763 147.982 253.299 148.518 253.96 148.518H280.388C281.049 148.518 281.585 147.982 281.585 147.321V126.046L281.629 38.178C281.629 26.7009 299.564 26.8885 299.564 38.178C299.564 63.5078 299.108 89.6683 299.814 114.962C299.993 121.5 301.841 127.904 305.361 133.424C321.411 158.638 362.701 154.243 372.767 124.778C374.142 120.759 374.803 116.517 374.803 112.274V2.65722C374.803 1.99629 374.267 1.4604 373.615 1.4604H373.606Z" fill="#070F06"/>
<path d="M450.141 2.55824V111.514C450.141 115.06 448.203 118.4 444.987 119.901C440.522 121.982 435.19 120.088 433.073 115.507C432.51 114.292 432.278 112.961 432.278 111.63V2.9155C432.278 2.2367 431.724 1.68295 431.045 1.68295H404.045C403.367 1.68295 402.813 2.2367 402.813 2.9155V111.139C402.813 121.526 406.725 131.628 414.066 138.97C421.408 146.311 430.956 150.214 441.209 150.214C441.308 150.214 441.406 150.214 441.513 150.214C462.529 150.054 479.624 132.825 479.624 111.809V2.55824C479.624 1.87944 479.07 1.32568 478.391 1.32568H451.391C450.713 1.32568 450.159 1.87944 450.159 2.55824H450.141Z" fill="#070F06"/>
</svg>
